<svg width="1200" height="480" viewBox="0 0 1200 480" fill="none" xmlns="http://www.w3.org/2000/svg">
<g clip-path="url(#clip0_1_11)">
<path d="M1200 0H0V480H1200V0Z" fill="#001220"/>
<path d="M0 298L28.5 297.2C57 296.3 114 294.7 171.2 298C228.3 301.3 285.7 309.7 342.8 313C400 316.3 457 314.7 514.2 316.2C571.3 317.7 628.7 322.3 685.8 320.7C743 319 800 311 857.2 310.7C914.3 310.3 971.7 317.7 1028.8 313.7C1086 309.7 1143 294.3 1171.5 286.7L1200 279V480H1171.5C1143 480 1086 480 1028.8 480C971.7 480 914.3 480 857.2 480C800 480 743 480 685.8 480C628.7 480 571.3 480 514.2 480C457 480 400 480 342.8 480C285.7 480 228.3 480 171.2 480C114 480 57 480 28.5 480H0V298Z" fill="#006494"/>
<path d="M0 327L28.5 334C57 341 114 355 171.2 353.3C228.3 351.7 285.7 334.3 342.8 331.7C400 329 457 341 514.2 347.3C571.3 353.7 628.7 354.3 685.8 353C743 351.7 800 348.3 857.2 343.3C914.3 338.3 971.7 331.7 1028.8 329.8C1086 328 1143 331 1171.5 332.5L1200 334V481H1171.5C1143 481 1086 481 1028.8 481C971.7 481 914.3 481 857.2 481C800 481 743 481 685.8 481C628.7 481 571.3 481 514.2 481C457 481 400 481 342.8 481C285.7 481 228.3 481 171.2 481C114 481 57 481 28.5 481H0V327Z" fill="#0F547D"/>
<path d="M0 381L28.5 375.8C57 370.7 114 360.3 171.2 355.5C228.3 350.7 285.7 351.3 342.8 360C400 368.7 457 385.3 514.2 389.7C571.3 394 628.7 386 685.8 379C743 372 800 366 857.2 370C914.3 374 971.7 388 1028.8 395.8C1086 403.7 1143 405.3 1171.5 406.2L1200 407V481H1171.5C1143 481 1086 481 1028.8 481C971.7 481 914.3 481 857.2 481C800 481 743 481 685.8 481C628.7 481 571.3 481 514.2 481C457 481 400 481 342.8 481C285.7 481 228.3 481 171.2 481C114 481 57 481 28.5 481H0V381Z" fill="#144567"/>
<path d="M0 406L28.5 403C57 400 114 394 171.2 398.5C228.3 403 285.7 418 342.8 420.7C400 423.3 457 413.7 514.2 409.7C571.3 405.7 628.7 407.3 685.8 409C743 410.7 800 412.3 857.2 414.2C914.3 416 971.7 418 1028.8 417.5C1086 417 1143 414 1171.5 412.5L1200 411V481H1171.5C1143 481 1086 481 1028.8 481C971.7 481 914.3 481 857.2 481C800 481 743 481 685.8 481C628.7 481 571.3 481 514.2 481C457 481 400 481 342.8 481C285.7 481 228.3 481 171.2 481C114 481 57 481 28.5 481H0V406Z" fill="#153752"/>
<path d="M0 450L28.5 445.5C57 441 114 432 171.2 430C228.3 428 285.7 433 342.8 432.5C400 432 457 426 514.2 426.8C571.3 427.7 628.7 435.3 685.8 441.7C743 448 800 453 857.2 451.7C914.3 450.3 971.7 442.7 1028.8 438.7C1086 434.7 1143 434.3 1171.5 434.2L1200 434V481H1171.5C1143 481 1086 481 1028.8 481C971.7 481 914.3 481 857.2 481C800 481 743 481 685.8 481C628.7 481 571.3 481 514.2 481C457 481 400 481 342.8 481C285.7 481 228.3 481 171.2 481C114 481 57 481 28.5 481H0V450Z" fill="#13293D"/>
<path d="M91.0312 122H83.5625V101.375H62.5V122H55V76.3125H62.5V95H83.5625V76.3125H91.0312V122ZM109.719 87.4062V122H102.375V87.4062H109.719ZM106.094 74.1562C107.219 74.1562 108.188 74.4583 109 75.0625C109.833 75.6667 110.25 76.7083 110.25 78.1875C110.25 79.6458 109.833 80.6875 109 81.3125C108.188 81.9167 107.219 82.2188 106.094 82.2188C104.927 82.2188 103.938 81.9167 103.125 81.3125C102.333 80.6875 101.938 79.6458 101.938 78.1875C101.938 76.7083 102.333 75.6667 103.125 75.0625C103.938 74.4583 104.927 74.1562 106.094 74.1562ZM149.75 116.688C150.708 116.688 151.656 116.604 152.594 116.438C153.531 116.25 154.385 116.031 155.156 115.781V121.344C154.344 121.698 153.292 122 152 122.25C150.708 122.5 149.365 122.625 147.969 122.625C146.01 122.625 144.25 122.302 142.688 121.656C141.125 120.99 139.885 119.854 138.969 118.25C138.052 116.646 137.594 114.427 137.594 111.594V93H132.875V89.7188L137.938 87.125L140.344 79.7188H144.969V87.4062H154.875V93H144.969V111.5C144.969 113.25 145.406 114.552 146.281 115.406C147.156 116.26 148.312 116.688 149.75 116.688ZM169.531 73.375V85.5938C169.531 86.8646 169.49 88.1042 169.406 89.3125C169.344 90.5208 169.271 91.4583 169.188 92.125H169.594C170.323 90.9167 171.219 89.9271 172.281 89.1562C173.344 88.3646 174.531 87.7708 175.844 87.375C177.177 86.9792 178.594 86.7812 180.094 86.7812C182.74 86.7812 184.99 87.2292 186.844 88.125C188.698 89 190.115 90.3646 191.094 92.2188C192.094 94.0729 192.594 96.4792 192.594 99.4375V122H185.25V100.812C185.25 98.125 184.698 96.1146 183.594 94.7812C182.49 93.4271 180.781 92.75 178.469 92.75C176.24 92.75 174.469 93.2188 173.156 94.1562C171.865 95.0729 170.938 96.4375 170.375 98.25C169.812 100.042 169.531 102.229 169.531 104.812V122H162.188V73.375H169.531ZM216.656 86.75C219.74 86.75 222.385 87.3854 224.594 88.6562C226.802 89.9271 228.5 91.7292 229.688 94.0625C230.875 96.3958 231.469 99.1875 231.469 102.438V106.375H208.375C208.458 109.729 209.354 112.312 211.062 114.125C212.792 115.938 215.208 116.844 218.312 116.844C220.521 116.844 222.5 116.635 224.25 116.219C226.021 115.781 227.844 115.146 229.719 114.312V120.281C227.99 121.094 226.229 121.688 224.438 122.062C222.646 122.438 220.5 122.625 218 122.625C214.604 122.625 211.615 121.969 209.031 120.656C206.469 119.323 204.458 117.344 203 114.719C201.562 112.094 200.844 108.833 200.844 104.938C200.844 101.062 201.5 97.7708 202.812 95.0625C204.125 92.3542 205.969 90.2917 208.344 88.875C210.719 87.4583 213.49 86.75 216.656 86.75ZM216.656 92.2812C214.344 92.2812 212.469 93.0312 211.031 94.5312C209.615 96.0312 208.781 98.2292 208.531 101.125H224.281C224.26 99.3958 223.969 97.8646 223.406 96.5312C222.865 95.1979 222.031 94.1562 220.906 93.4062C219.802 92.6562 218.385 92.2812 216.656 92.2812ZM257.281 86.75C257.865 86.75 258.5 86.7812 259.188 86.8438C259.875 86.9062 260.469 86.9896 260.969 87.0938L260.281 93.9688C259.844 93.8438 259.302 93.75 258.656 93.6875C258.031 93.625 257.469 93.5938 256.969 93.5938C255.656 93.5938 254.406 93.8125 253.219 94.25C252.031 94.6667 250.979 95.3125 250.062 96.1875C249.146 97.0417 248.427 98.1146 247.906 99.4062C247.385 100.698 247.125 102.198 247.125 103.906V122H239.75V87.4062H245.5L246.5 93.5H246.844C247.531 92.2708 248.385 91.1458 249.406 90.125C250.427 89.1042 251.594 88.2917 252.906 87.6875C254.24 87.0625 255.698 86.75 257.281 86.75ZM281.156 86.75C284.24 86.75 286.885 87.3854 289.094 88.6562C291.302 89.9271 293 91.7292 294.188 94.0625C295.375 96.3958 295.969 99.1875 295.969 102.438V106.375H272.875C272.958 109.729 273.854 112.312 275.562 114.125C277.292 115.938 279.708 116.844 282.812 116.844C285.021 116.844 287 116.635 288.75 116.219C290.521 115.781 292.344 115.146 294.219 114.312V120.281C292.49 121.094 290.729 121.688 288.938 122.062C287.146 122.438 285 122.625 282.5 122.625C279.104 122.625 276.115 121.969 273.531 120.656C270.969 119.323 268.958 117.344 267.5 114.719C266.062 112.094 265.344 108.833 265.344 104.938C265.344 101.062 266 97.7708 267.312 95.0625C268.625 92.3542 270.469 90.2917 272.844 88.875C275.219 87.4583 277.99 86.75 281.156 86.75ZM281.156 92.2812C278.844 92.2812 276.969 93.0312 275.531 94.5312C274.115 96.0312 273.281 98.2292 273.031 101.125H288.781C288.76 99.3958 288.469 97.8646 287.906 96.5312C287.365 95.1979 286.531 94.1562 285.406 93.4062C284.302 92.6562 282.885 92.2812 281.156 92.2812ZM310.594 108.062H305.062L303.562 76.3125H312.094L310.594 108.062ZM303.188 118.125C303.188 116.417 303.625 115.219 304.5 114.531C305.396 113.823 306.49 113.469 307.781 113.469C309.052 113.469 310.135 113.823 311.031 114.531C311.927 115.219 312.375 116.417 312.375 118.125C312.375 119.792 311.927 121 311.031 121.75C310.135 122.479 309.052 122.844 307.781 122.844C306.49 122.844 305.396 122.479 304.5 121.75C303.625 121 303.188 119.792 303.188 118.125Z" fill="#E8F1F2"/>
<path d="M52.852 197V195.56H58.972V174.716H52.852V173.276H66.748V174.716H60.628V195.56H66.748V197H52.852ZM79.4779 183.14L78.7579 182.06C79.7899 181.364 80.6179 180.5 81.2419 179.468C81.8659 178.436 82.2259 177.248 82.3219 175.904C81.9139 176.144 81.5539 176.264 81.2419 176.264C80.6179 176.264 80.1019 176.06 79.6939 175.652C79.3099 175.244 79.1179 174.728 79.1179 174.104C79.1179 173.432 79.3219 172.88 79.7299 172.448C80.1379 172.016 80.6659 171.8 81.3139 171.8C82.0339 171.8 82.6579 172.112 83.1859 172.736C83.7139 173.36 83.9779 174.224 83.9779 175.328C83.9779 177.056 83.5579 178.604 82.7179 179.972C81.9019 181.316 80.8219 182.372 79.4779 183.14ZM94.8359 197V179.72H96.1679L96.3479 182.06H96.4199C96.9239 181.22 97.4639 180.548 98.0399 180.044C98.6399 179.54 99.4319 179.288 100.416 179.288C102.24 179.288 103.38 180.308 103.836 182.348C104.46 181.364 105.072 180.608 105.672 180.08C106.296 179.552 107.1 179.288 108.084 179.288C109.308 179.288 110.232 179.72 110.856 180.584C111.504 181.448 111.828 182.744 111.828 184.472V197H110.244V184.652C110.244 182.036 109.416 180.728 107.76 180.728C106.992 180.728 106.332 181.004 105.78 181.556C105.228 182.084 104.664 182.888 104.088 183.968V197H102.576V184.652C102.576 182.036 101.76 180.728 100.128 180.728C99.3359 180.728 98.6519 181.004 98.0759 181.556C97.5239 182.084 96.9719 182.888 96.4199 183.968V197H94.8359ZM143.444 183.032L141.932 187.46H150.356L148.844 183.032C148.364 181.616 147.908 180.26 147.476 178.964C147.044 177.668 146.624 176.288 146.216 174.824H146.072C145.664 176.288 145.244 177.668 144.812 178.964C144.38 180.26 143.924 181.616 143.444 183.032ZM136.964 197L145.316 173.276H146.972L155.324 197H153.56L150.824 188.864H141.428L138.62 197H136.964ZM160.71 197V179.72H162.078L162.258 183.032H162.402C163.41 181.952 164.442 181.064 165.498 180.368C166.578 179.648 167.814 179.288 169.206 179.288C173.358 179.288 175.434 181.604 175.434 186.236V197H173.814V186.452C173.814 184.508 173.43 183.068 172.662 182.132C171.918 181.196 170.682 180.728 168.954 180.728C168.33 180.728 167.754 180.812 167.226 180.98C166.698 181.124 166.17 181.364 165.642 181.7C165.138 182.012 164.61 182.42 164.058 182.924C163.53 183.404 162.954 183.968 162.33 184.616V197H160.71ZM192.808 197.432C191.608 197.432 190.612 197.264 189.82 196.928C189.028 196.592 188.392 196.124 187.912 195.524C187.456 194.924 187.12 194.204 186.904 193.364C186.712 192.5 186.616 191.552 186.616 190.52V181.088H181.396V179.864L186.652 179.72L186.868 173.996H188.2V179.72H197.416V181.088H188.2V190.664C188.2 191.504 188.272 192.26 188.416 192.932C188.56 193.58 188.812 194.144 189.172 194.624C189.532 195.08 190.024 195.428 190.648 195.668C191.272 195.908 192.064 196.028 193.024 196.028C193.936 196.028 194.752 195.956 195.472 195.812C196.216 195.644 196.936 195.416 197.632 195.128L198.064 196.352C197.272 196.688 196.468 196.952 195.652 197.144C194.836 197.336 193.888 197.432 192.808 197.432ZM210.902 197.432C209.774 197.432 208.694 197.228 207.662 196.82C206.654 196.412 205.766 195.824 204.998 195.056C204.23 194.288 203.618 193.352 203.162 192.248C202.73 191.12 202.514 189.836 202.514 188.396C202.514 186.956 202.73 185.672 203.162 184.544C203.618 183.392 204.23 182.432 204.998 181.664C205.766 180.896 206.654 180.308 207.662 179.9C208.694 179.492 209.774 179.288 210.902 179.288C212.03 179.288 213.098 179.492 214.106 179.9C215.138 180.308 216.038 180.896 216.806 181.664C217.574 182.432 218.174 183.392 218.606 184.544C219.062 185.672 219.29 186.956 219.29 188.396C219.29 189.836 219.062 191.12 218.606 192.248C218.174 193.352 217.574 194.288 216.806 195.056C216.038 195.824 215.138 196.412 214.106 196.82C213.098 197.228 212.03 197.432 210.902 197.432ZM210.902 196.028C211.862 196.028 212.75 195.848 213.566 195.488C214.406 195.104 215.114 194.576 215.69 193.904C216.29 193.232 216.758 192.428 217.094 191.492C217.43 190.556 217.598 189.524 217.598 188.396C217.598 187.244 217.43 186.2 217.094 185.264C216.758 184.328 216.29 183.524 215.69 182.852C215.114 182.156 214.406 181.628 213.566 181.268C212.75 180.884 211.862 180.692 210.902 180.692C209.918 180.692 209.018 180.884 208.202 181.268C207.386 181.628 206.678 182.156 206.078 182.852C205.502 183.524 205.046 184.328 204.71 185.264C204.374 186.2 204.206 187.244 204.206 188.396C204.206 189.524 204.374 190.556 204.71 191.492C205.046 192.428 205.502 193.232 206.078 193.904C206.678 194.576 207.386 195.104 208.202 195.488C209.018 195.848 209.918 196.028 210.902 196.028ZM225.468 197V179.72H226.836L227.016 183.032H227.16C228.168 181.952 229.2 181.064 230.256 180.368C231.336 179.648 232.572 179.288 233.964 179.288C238.116 179.288 240.191 181.604 240.191 186.236V197H238.572V186.452C238.572 184.508 238.188 183.068 237.42 182.132C236.676 181.196 235.44 180.728 233.712 180.728C233.088 180.728 232.512 180.812 231.984 180.98C231.456 181.124 230.928 181.364 230.4 181.7C229.896 182.012 229.368 182.42 228.816 182.924C228.288 183.404 227.712 183.968 227.088 184.616V197H225.468ZM274.831 197.432C273.511 197.432 272.251 197.108 271.051 196.46C269.851 195.788 268.903 194.792 268.207 193.472L269.395 192.5C270.091 193.7 270.919 194.576 271.879 195.128C272.839 195.656 273.823 195.92 274.831 195.92C276.823 195.92 278.263 195.404 279.151 194.372C280.039 193.316 280.483 191.696 280.483 189.512V174.644H270.151V173.24H282.139V189.656C282.139 190.736 282.019 191.756 281.779 192.716C281.539 193.652 281.131 194.468 280.555 195.164C279.979 195.86 279.223 196.412 278.287 196.82C277.351 197.228 276.199 197.432 274.831 197.432ZM295.769 197.432C295.001 197.432 294.245 197.336 293.501 197.144C292.781 196.952 292.145 196.664 291.593 196.28C291.041 195.896 290.597 195.404 290.261 194.804C289.925 194.204 289.757 193.496 289.757 192.68C289.757 191.72 290.009 190.88 290.513 190.16C291.017 189.44 291.797 188.816 292.853 188.288C293.933 187.76 295.301 187.328 296.957 186.992C298.637 186.656 300.653 186.38 303.005 186.164C303.005 185.444 302.921 184.76 302.753 184.112C302.585 183.44 302.297 182.852 301.889 182.348C301.505 181.844 300.977 181.448 300.305 181.16C299.657 180.848 298.841 180.692 297.857 180.692C297.209 180.692 296.573 180.764 295.949 180.908C295.325 181.052 294.725 181.244 294.149 181.484C293.573 181.724 293.045 181.988 292.565 182.276C292.085 182.54 291.665 182.792 291.305 183.032L290.585 181.844C290.921 181.604 291.353 181.34 291.881 181.052C292.433 180.74 293.033 180.464 293.681 180.224C294.329 179.96 295.025 179.744 295.769 179.576C296.513 179.384 297.269 179.288 298.037 179.288C299.189 179.288 300.173 179.468 300.989 179.828C301.829 180.164 302.513 180.632 303.041 181.232C303.569 181.832 303.953 182.54 304.193 183.356C304.457 184.148 304.589 185.012 304.589 185.948V197H303.257L303.077 194.408H303.005C301.997 195.2 300.857 195.908 299.585 196.532C298.337 197.132 297.065 197.432 295.769 197.432ZM296.057 196.064C298.241 196.064 300.557 195.02 303.005 192.932V187.388C300.797 187.58 298.949 187.832 297.461 188.144C295.997 188.456 294.809 188.828 293.897 189.26C292.985 189.692 292.337 190.184 291.953 190.736C291.569 191.288 291.377 191.912 291.377 192.608C291.377 193.232 291.509 193.76 291.773 194.192C292.037 194.624 292.385 194.984 292.817 195.272C293.273 195.536 293.777 195.74 294.329 195.884C294.905 196.004 295.481 196.064 296.057 196.064ZM322.935 197.432C321.279 197.432 320.007 196.988 319.119 196.1C318.231 195.188 317.787 193.748 317.787 191.78V172.484H311.235V171.116H319.371V191.996C319.371 193.364 319.695 194.384 320.343 195.056C320.991 195.704 321.927 196.028 323.151 196.028C324.303 196.028 325.491 195.728 326.715 195.128L327.219 196.352C326.475 196.712 325.779 196.976 325.131 197.144C324.507 197.336 323.775 197.432 322.935 197.432ZM339.661 197.432C338.533 197.432 337.501 197.24 336.565 196.856C335.629 196.448 334.825 195.86 334.153 195.092C333.481 194.324 332.953 193.388 332.569 192.284C332.209 191.156 332.029 189.86 332.029 188.396C332.029 187.004 332.245 185.744 332.677 184.616C333.133 183.488 333.733 182.528 334.477 181.736C335.245 180.944 336.109 180.344 337.069 179.936C338.053 179.504 339.085 179.288 340.165 179.288C341.269 179.288 342.277 179.504 343.189 179.936C344.101 180.368 344.989 180.968 345.853 181.736H345.925L345.817 178.244V171.116H347.437V197H346.069L345.889 194.444H345.817C345.049 195.236 344.137 195.932 343.081 196.532C342.025 197.132 340.885 197.432 339.661 197.432ZM339.877 196.028C340.885 196.028 341.881 195.752 342.865 195.2C343.873 194.648 344.857 193.868 345.817 192.86V183.248C344.833 182.312 343.885 181.652 342.973 181.268C342.085 180.884 341.185 180.692 340.273 180.692C339.361 180.692 338.509 180.896 337.717 181.304C336.925 181.688 336.229 182.228 335.629 182.924C335.029 183.596 334.561 184.412 334.225 185.372C333.889 186.308 333.721 187.316 333.721 188.396C333.721 189.548 333.853 190.592 334.117 191.528C334.405 192.464 334.813 193.268 335.341 193.94C335.869 194.588 336.517 195.104 337.285 195.488C338.053 195.848 338.917 196.028 339.877 196.028ZM363.083 197.432C361.835 197.432 360.659 197.228 359.555 196.82C358.451 196.412 357.479 195.824 356.639 195.056C355.823 194.264 355.175 193.304 354.695 192.176C354.215 191.048 353.975 189.776 353.975 188.36C353.975 186.968 354.215 185.708 354.695 184.58C355.175 183.452 355.811 182.504 356.603 181.736C357.395 180.944 358.307 180.344 359.339 179.936C360.395 179.504 361.487 179.288 362.615 179.288C363.791 179.288 364.859 179.48 365.819 179.864C366.779 180.224 367.595 180.752 368.267 181.448C368.939 182.12 369.455 182.948 369.815 183.932C370.175 184.916 370.355 186.032 370.355 187.28C370.355 187.496 370.355 187.724 370.355 187.964C370.355 188.18 370.331 188.396 370.283 188.612H355.595C355.619 189.812 355.835 190.88 356.243 191.816C356.675 192.752 357.239 193.532 357.935 194.156C358.631 194.78 359.423 195.26 360.311 195.596C361.223 195.908 362.183 196.064 363.191 196.064C364.367 196.064 365.423 195.896 366.359 195.56C367.295 195.2 368.171 194.744 368.987 194.192L369.635 195.38C368.867 195.908 367.967 196.388 366.935 196.82C365.903 197.228 364.619 197.432 363.083 197.432ZM362.651 180.656C361.811 180.656 360.995 180.8 360.203 181.088C359.435 181.376 358.727 181.808 358.079 182.384C357.455 182.936 356.927 183.62 356.495 184.436C356.063 185.252 355.787 186.188 355.667 187.244H368.915C368.795 185.012 368.159 183.356 367.007 182.276C365.855 181.196 364.403 180.656 362.651 180.656ZM383.877 205.316C381.165 205.316 379.137 204.86 377.793 203.948C376.473 203.036 375.813 201.824 375.813 200.312C375.813 199.616 376.065 198.908 376.569 198.188C377.073 197.468 377.793 196.82 378.729 196.244V196.1C378.297 195.884 377.889 195.548 377.505 195.092C377.121 194.636 376.929 194.048 376.929 193.328C376.929 192.776 377.097 192.212 377.433 191.636C377.793 191.06 378.321 190.532 379.017 190.052V189.908C378.465 189.452 377.985 188.864 377.577 188.144C377.169 187.4 376.965 186.5 376.965 185.444C376.965 184.556 377.133 183.74 377.469 182.996C377.805 182.228 378.261 181.58 378.837 181.052C379.437 180.5 380.121 180.068 380.889 179.756C381.681 179.444 382.521 179.288 383.409 179.288C384.297 179.288 385.089 179.432 385.785 179.72H392.985V181.088H387.765C388.293 181.616 388.761 182.252 389.169 182.996C389.577 183.74 389.781 184.568 389.781 185.48C389.781 186.368 389.613 187.184 389.277 187.928C388.941 188.648 388.485 189.272 387.909 189.8C387.333 190.328 386.661 190.748 385.893 191.06C385.125 191.348 384.297 191.492 383.409 191.492C382.881 191.492 382.329 191.432 381.753 191.312C381.201 191.168 380.661 190.964 380.133 190.7C379.629 191.012 379.221 191.372 378.909 191.78C378.597 192.188 378.441 192.632 378.441 193.112C378.441 193.952 378.801 194.564 379.521 194.948C380.241 195.332 381.213 195.524 382.437 195.524H386.721C388.929 195.524 390.525 195.824 391.509 196.424C392.517 197 393.021 197.996 393.021 199.412C393.021 200.156 392.805 200.876 392.373 201.572C391.941 202.292 391.329 202.928 390.537 203.48C389.745 204.032 388.785 204.476 387.657 204.812C386.529 205.148 385.269 205.316 383.877 205.316ZM383.409 190.232C384.057 190.232 384.669 190.124 385.245 189.908C385.845 189.668 386.361 189.344 386.793 188.936C387.225 188.504 387.561 188 387.801 187.424C388.065 186.824 388.197 186.164 388.197 185.444C388.197 184.748 388.065 184.112 387.801 183.536C387.561 182.936 387.225 182.42 386.793 181.988C386.361 181.556 385.845 181.22 385.245 180.98C384.669 180.74 384.057 180.62 383.409 180.62C382.737 180.62 382.101 180.74 381.501 180.98C380.925 181.22 380.421 181.556 379.989 181.988C379.557 182.42 379.209 182.936 378.945 183.536C378.705 184.112 378.585 184.748 378.585 185.444C378.585 186.164 378.705 186.824 378.945 187.424C379.209 188 379.557 188.504 379.989 188.936C380.421 189.344 380.925 189.668 381.501 189.908C382.101 190.124 382.737 190.232 383.409 190.232ZM383.769 204.02C384.945 204.02 386.001 203.888 386.937 203.624C387.897 203.36 388.701 203.024 389.349 202.616C389.997 202.208 390.489 201.74 390.825 201.212C391.185 200.684 391.365 200.144 391.365 199.592C391.365 198.608 390.993 197.936 390.249 197.576C389.505 197.216 388.377 197.036 386.865 197.036H382.761C382.329 197.036 381.885 197.012 381.429 196.964C380.973 196.916 380.541 196.832 380.133 196.712C379.077 197.264 378.345 197.852 377.937 198.476C377.529 199.1 377.325 199.724 377.325 200.348C377.325 201.404 377.853 202.28 378.909 202.976C379.965 203.672 381.585 204.02 383.769 204.02ZM400.243 197V179.72H401.611L401.791 183.968H401.863C402.799 182.6 403.951 181.484 405.319 180.62C406.711 179.732 408.271 179.288 409.999 179.288C410.575 179.288 411.151 179.336 411.727 179.432C412.327 179.528 412.903 179.72 413.455 180.008L413.023 181.412C412.399 181.196 411.859 181.04 411.403 180.944C410.971 180.848 410.419 180.8 409.747 180.8C408.307 180.8 406.927 181.208 405.607 182.024C404.311 182.84 403.063 184.232 401.863 186.2V197H400.243ZM427.841 197.432C426.593 197.432 425.417 197.228 424.313 196.82C423.209 196.412 422.237 195.824 421.397 195.056C420.581 194.264 419.933 193.304 419.453 192.176C418.973 191.048 418.733 189.776 418.733 188.36C418.733 186.968 418.973 185.708 419.453 184.58C419.933 183.452 420.569 182.504 421.361 181.736C422.153 180.944 423.065 180.344 424.097 179.936C425.153 179.504 426.245 179.288 427.373 179.288C428.549 179.288 429.617 179.48 430.577 179.864C431.537 180.224 432.353 180.752 433.025 181.448C433.697 182.12 434.213 182.948 434.573 183.932C434.933 184.916 435.113 186.032 435.113 187.28C435.113 187.496 435.113 187.724 435.113 187.964C435.113 188.18 435.089 188.396 435.041 188.612H420.353C420.377 189.812 420.593 190.88 421.001 191.816C421.433 192.752 421.997 193.532 422.693 194.156C423.389 194.78 424.181 195.26 425.069 195.596C425.981 195.908 426.941 196.064 427.949 196.064C429.125 196.064 430.181 195.896 431.117 195.56C432.053 195.2 432.929 194.744 433.745 194.192L434.393 195.38C433.625 195.908 432.725 196.388 431.693 196.82C430.661 197.228 429.377 197.432 427.841 197.432ZM427.409 180.656C426.569 180.656 425.753 180.8 424.961 181.088C424.193 181.376 423.485 181.808 422.837 182.384C422.213 182.936 421.685 183.62 421.253 184.436C420.821 185.252 420.545 186.188 420.425 187.244H433.673C433.553 185.012 432.917 183.356 431.765 182.276C430.613 181.196 429.161 180.656 427.409 180.656ZM441.327 197V179.72H442.695L442.875 183.032H443.019C444.027 181.952 445.059 181.064 446.115 180.368C447.195 179.648 448.431 179.288 449.823 179.288C453.975 179.288 456.051 181.604 456.051 186.236V197H454.431V186.452C454.431 184.508 454.047 183.068 453.279 182.132C452.535 181.196 451.299 180.728 449.571 180.728C448.947 180.728 448.371 180.812 447.843 180.98C447.315 181.124 446.787 181.364 446.259 181.7C445.755 182.012 445.227 182.42 444.675 182.924C444.147 183.404 443.571 183.968 442.947 184.616V197H441.327ZM483.599 188.864V187.1H499.439V188.864H483.599ZM60.16 247.432C59.272 247.432 58.3 247.216 57.244 246.784C56.188 246.352 55.228 245.776 54.364 245.056H54.292L54.112 247H52.78V221.116H54.4V228.604L54.292 232.312H54.364C55.252 231.4 56.272 230.668 57.424 230.116C58.576 229.564 59.716 229.288 60.844 229.288C63.292 229.288 65.128 230.092 66.352 231.7C67.576 233.284 68.188 235.42 68.188 238.108C68.188 239.572 67.96 240.88 67.504 242.032C67.072 243.184 66.484 244.168 65.74 244.984C65.02 245.776 64.168 246.388 63.184 246.82C62.224 247.228 61.216 247.432 60.16 247.432ZM60.088 246.028C61.024 246.028 61.876 245.836 62.644 245.452C63.436 245.068 64.108 244.528 64.66 243.832C65.236 243.136 65.68 242.308 65.992 241.348C66.328 240.364 66.496 239.284 66.496 238.108C66.496 237.052 66.388 236.068 66.172 235.156C65.956 234.244 65.608 233.464 65.128 232.816C64.672 232.144 64.06 231.628 63.292 231.268C62.548 230.884 61.648 230.692 60.592 230.692C59.68 230.692 58.684 230.956 57.604 231.484C56.548 231.988 55.48 232.78 54.4 233.86V243.472C55.408 244.384 56.428 245.044 57.46 245.452C58.492 245.836 59.368 246.028 60.088 246.028ZM79.9099 247.432C79.1419 247.432 78.3859 247.336 77.6419 247.144C76.9219 246.952 76.2859 246.664 75.7339 246.28C75.1819 245.896 74.7379 245.404 74.4019 244.804C74.0659 244.204 73.8979 243.496 73.8979 242.68C73.8979 241.72 74.1499 240.88 74.6539 240.16C75.1579 239.44 75.9379 238.816 76.9939 238.288C78.0739 237.76 79.4419 237.328 81.0979 236.992C82.7779 236.656 84.7939 236.38 87.1459 236.164C87.1459 235.444 87.0619 234.76 86.8939 234.112C86.7259 233.44 86.4379 232.852 86.0299 232.348C85.6459 231.844 85.1179 231.448 84.4459 231.16C83.7979 230.848 82.9819 230.692 81.9979 230.692C81.3499 230.692 80.7139 230.764 80.0899 230.908C79.4659 231.052 78.8659 231.244 78.2899 231.484C77.7139 231.724 77.1859 231.988 76.7059 232.276C76.2259 232.54 75.8059 232.792 75.4459 233.032L74.7259 231.844C75.0619 231.604 75.4939 231.34 76.0219 231.052C76.5739 230.74 77.1739 230.464 77.8219 230.224C78.4699 229.96 79.1659 229.744 79.9099 229.576C80.6539 229.384 81.4099 229.288 82.1779 229.288C83.3299 229.288 84.3139 229.468 85.1299 229.828C85.9699 230.164 86.6539 230.632 87.1819 231.232C87.7099 231.832 88.0939 232.54 88.3339 233.356C88.5979 234.148 88.7299 235.012 88.7299 235.948V247H87.3979L87.2179 244.408H87.1459C86.1379 245.2 84.9979 245.908 83.7259 246.532C82.4779 247.132 81.2059 247.432 79.9099 247.432ZM80.1979 246.064C82.3819 246.064 84.6979 245.02 87.1459 242.932V237.388C84.9379 237.58 83.0899 237.832 81.6019 238.144C80.1379 238.456 78.9499 238.828 78.0379 239.26C77.1259 239.692 76.4779 240.184 76.0939 240.736C75.7099 241.288 75.5179 241.912 75.5179 242.608C75.5179 243.232 75.6499 243.76 75.9139 244.192C76.1779 244.624 76.5259 244.984 76.9579 245.272C77.4139 245.536 77.9179 245.74 78.4699 245.884C79.0459 246.004 79.6219 246.064 80.1979 246.064ZM103.656 247.432C101.856 247.432 100.236 247.156 98.7959 246.604C97.3799 246.052 96.1559 245.416 95.1239 244.696L95.9519 243.544C96.9359 244.288 98.0279 244.9 99.2279 245.38C100.452 245.836 101.976 246.064 103.8 246.064C105.576 246.064 106.908 245.728 107.796 245.056C108.684 244.36 109.128 243.556 109.128 242.644C109.128 242.26 109.068 241.9 108.948 241.564C108.828 241.204 108.552 240.868 108.12 240.556C107.712 240.22 107.1 239.908 106.284 239.62C105.492 239.308 104.412 239.008 103.044 238.72C100.836 238.288 99.1319 237.7 97.9319 236.956C96.7319 236.188 96.1319 235.168 96.1319 233.896C96.1319 233.272 96.2639 232.684 96.5279 232.132C96.7919 231.556 97.1999 231.064 97.7519 230.656C98.3279 230.224 99.0359 229.888 99.8759 229.648C100.74 229.408 101.748 229.288 102.9 229.288C104.052 229.288 105.228 229.492 106.428 229.9C107.652 230.308 108.684 230.812 109.524 231.412L108.66 232.564C107.892 231.988 107.016 231.532 106.032 231.196C105.048 230.836 103.968 230.656 102.792 230.656C101.856 230.656 101.064 230.752 100.416 230.944C99.7679 231.112 99.2519 231.34 98.8679 231.628C98.4839 231.916 98.2079 232.252 98.0399 232.636C97.8719 232.996 97.7879 233.38 97.7879 233.788C97.7879 234.7 98.2439 235.42 99.1559 235.948C100.092 236.476 101.532 236.944 103.476 237.352C104.964 237.664 106.176 237.988 107.112 238.324C108.072 238.66 108.816 239.044 109.344 239.476C109.896 239.884 110.268 240.34 110.46 240.844C110.676 241.348 110.784 241.924 110.784 242.572C110.784 243.22 110.628 243.844 110.316 244.444C110.004 245.02 109.536 245.536 108.912 245.992C108.312 246.424 107.568 246.772 106.68 247.036C105.792 247.3 104.784 247.432 103.656 247.432ZM125.638 247.432C124.39 247.432 123.214 247.228 122.11 246.82C121.006 246.412 120.034 245.824 119.194 245.056C118.378 244.264 117.73 243.304 117.25 242.176C116.77 241.048 116.53 239.776 116.53 238.36C116.53 236.968 116.77 235.708 117.25 234.58C117.73 233.452 118.366 232.504 119.158 231.736C119.95 230.944 120.862 230.344 121.894 229.936C122.95 229.504 124.042 229.288 125.17 229.288C126.346 229.288 127.414 229.48 128.374 229.864C129.334 230.224 130.15 230.752 130.822 231.448C131.494 232.12 132.01 232.948 132.37 233.932C132.73 234.916 132.91 236.032 132.91 237.28C132.91 237.496 132.91 237.724 132.91 237.964C132.91 238.18 132.886 238.396 132.838 238.612H118.15C118.174 239.812 118.39 240.88 118.798 241.816C119.23 242.752 119.794 243.532 120.49 244.156C121.186 244.78 121.978 245.26 122.866 245.596C123.778 245.908 124.738 246.064 125.746 246.064C126.922 246.064 127.978 245.896 128.914 245.56C129.85 245.2 130.726 244.744 131.542 244.192L132.19 245.38C131.422 245.908 130.522 246.388 129.49 246.82C128.458 247.228 127.174 247.432 125.638 247.432ZM125.206 230.656C124.366 230.656 123.55 230.8 122.758 231.088C121.99 231.376 121.282 231.808 120.634 232.384C120.01 232.936 119.482 233.62 119.05 234.436C118.618 235.252 118.342 236.188 118.222 237.244H131.47C131.35 235.012 130.714 233.356 129.562 232.276C128.41 231.196 126.958 230.656 125.206 230.656ZM145.388 247.432C144.26 247.432 143.228 247.24 142.292 246.856C141.356 246.448 140.552 245.86 139.88 245.092C139.208 244.324 138.68 243.388 138.296 242.284C137.936 241.156 137.756 239.86 137.756 238.396C137.756 237.004 137.972 235.744 138.404 234.616C138.86 233.488 139.46 232.528 140.204 231.736C140.972 230.944 141.836 230.344 142.796 229.936C143.78 229.504 144.812 229.288 145.892 229.288C146.996 229.288 148.004 229.504 148.916 229.936C149.828 230.368 150.716 230.968 151.58 231.736H151.652L151.544 228.244V221.116H153.164V247H151.796L151.616 244.444H151.544C150.776 245.236 149.864 245.932 148.808 246.532C147.752 247.132 146.612 247.432 145.388 247.432ZM145.604 246.028C146.612 246.028 147.608 245.752 148.592 245.2C149.6 244.648 150.584 243.868 151.544 242.86V233.248C150.56 232.312 149.612 231.652 148.7 231.268C147.812 230.884 146.912 230.692 146 230.692C145.088 230.692 144.236 230.896 143.444 231.304C142.652 231.688 141.956 232.228 141.356 232.924C140.756 233.596 140.288 234.412 139.952 235.372C139.616 236.308 139.448 237.316 139.448 238.396C139.448 239.548 139.58 240.592 139.844 241.528C140.132 242.464 140.54 243.268 141.068 243.94C141.596 244.588 142.244 245.104 143.012 245.488C143.78 245.848 144.644 246.028 145.604 246.028ZM190.684 247V231.088H182.008V229.72H192.268V247H190.684ZM191.08 225.508C190.6 225.508 190.192 225.364 189.856 225.076C189.544 224.764 189.388 224.332 189.388 223.78C189.388 223.252 189.544 222.832 189.856 222.52C190.192 222.208 190.6 222.052 191.08 222.052C191.56 222.052 191.956 222.208 192.268 222.52C192.604 222.832 192.772 223.252 192.772 223.78C192.772 224.332 192.604 224.764 192.268 225.076C191.956 225.364 191.56 225.508 191.08 225.508ZM203.882 247V229.72H205.25L205.43 233.032H205.574C206.582 231.952 207.614 231.064 208.67 230.368C209.75 229.648 210.986 229.288 212.378 229.288C216.53 229.288 218.606 231.604 218.606 236.236V247H216.986V236.452C216.986 234.508 216.602 233.068 215.834 232.132C215.09 231.196 213.854 230.728 212.126 230.728C211.502 230.728 210.926 230.812 210.398 230.98C209.87 231.124 209.342 231.364 208.814 231.7C208.31 232.012 207.782 232.42 207.23 232.924C206.702 233.404 206.126 233.968 205.502 234.616V247H203.882ZM254.397 247.432C252.573 247.432 250.965 247.108 249.573 246.46C248.205 245.788 247.017 244.924 246.009 243.868L247.089 242.716C248.001 243.7 249.081 244.48 250.329 245.056C251.577 245.632 252.945 245.92 254.433 245.92C256.353 245.92 257.865 245.488 258.969 244.624C260.097 243.736 260.661 242.596 260.661 241.204C260.661 240.46 260.529 239.836 260.265 239.332C260.025 238.804 259.689 238.36 259.257 238C258.849 237.616 258.357 237.292 257.781 237.028C257.229 236.74 256.641 236.464 256.017 236.2L252.453 234.58C251.901 234.364 251.313 234.1 250.689 233.788C250.089 233.476 249.537 233.092 249.033 232.636C248.529 232.156 248.109 231.604 247.773 230.98C247.437 230.332 247.269 229.564 247.269 228.676C247.269 227.812 247.449 227.032 247.809 226.336C248.169 225.616 248.673 225.004 249.321 224.5C249.969 223.972 250.737 223.564 251.625 223.276C252.513 222.988 253.473 222.844 254.505 222.844C256.017 222.844 257.361 223.132 258.537 223.708C259.737 224.26 260.721 224.92 261.489 225.688L260.517 226.768C259.773 226.048 258.897 225.472 257.889 225.04C256.905 224.584 255.765 224.356 254.469 224.356C252.813 224.356 251.469 224.74 250.437 225.508C249.429 226.276 248.925 227.308 248.925 228.604C248.925 229.3 249.069 229.888 249.357 230.368C249.645 230.848 250.005 231.268 250.437 231.628C250.893 231.964 251.373 232.264 251.877 232.528C252.405 232.768 252.909 232.984 253.389 233.176L256.953 234.76C257.673 235.048 258.357 235.372 259.005 235.732C259.653 236.092 260.217 236.512 260.697 236.992C261.201 237.472 261.597 238.048 261.885 238.72C262.173 239.368 262.317 240.148 262.317 241.06C262.317 241.972 262.125 242.824 261.741 243.616C261.381 244.384 260.853 245.056 260.157 245.632C259.461 246.184 258.621 246.628 257.637 246.964C256.677 247.276 255.597 247.432 254.397 247.432ZM279.151 247.432C277.951 247.432 276.955 247.264 276.163 246.928C275.371 246.592 274.735 246.124 274.255 245.524C273.799 244.924 273.463 244.204 273.247 243.364C273.055 242.5 272.959 241.552 272.959 240.52V231.088H267.739V229.864L272.995 229.72L273.211 223.996H274.543V229.72H283.759V231.088H274.543V240.664C274.543 241.504 274.615 242.26 274.759 242.932C274.903 243.58 275.155 244.144 275.515 244.624C275.875 245.08 276.367 245.428 276.991 245.668C277.615 245.908 278.407 246.028 279.367 246.028C280.279 246.028 281.095 245.956 281.815 245.812C282.559 245.644 283.279 245.416 283.975 245.128L284.407 246.352C283.615 246.688 282.811 246.952 281.995 247.144C281.179 247.336 280.231 247.432 279.151 247.432ZM297.245 247.432C296.117 247.432 295.037 247.228 294.005 246.82C292.997 246.412 292.109 245.824 291.341 245.056C290.573 244.288 289.961 243.352 289.505 242.248C289.073 241.12 288.857 239.836 288.857 238.396C288.857 236.956 289.073 235.672 289.505 234.544C289.961 233.392 290.573 232.432 291.341 231.664C292.109 230.896 292.997 230.308 294.005 229.9C295.037 229.492 296.117 229.288 297.245 229.288C298.373 229.288 299.441 229.492 300.449 229.9C301.481 230.308 302.381 230.896 303.149 231.664C303.917 232.432 304.517 233.392 304.949 234.544C305.405 235.672 305.633 236.956 305.633 238.396C305.633 239.836 305.405 241.12 304.949 242.248C304.517 243.352 303.917 244.288 303.149 245.056C302.381 245.824 301.481 246.412 300.449 246.82C299.441 247.228 298.373 247.432 297.245 247.432ZM297.245 246.028C298.205 246.028 299.093 245.848 299.909 245.488C300.749 245.104 301.457 244.576 302.033 243.904C302.633 243.232 303.101 242.428 303.437 241.492C303.773 240.556 303.941 239.524 303.941 238.396C303.941 237.244 303.773 236.2 303.437 235.264C303.101 234.328 302.633 233.524 302.033 232.852C301.457 232.156 300.749 231.628 299.909 231.268C299.093 230.884 298.205 230.692 297.245 230.692C296.261 230.692 295.361 230.884 294.545 231.268C293.729 231.628 293.021 232.156 292.421 232.852C291.845 233.524 291.389 234.328 291.053 235.264C290.717 236.2 290.549 237.244 290.549 238.396C290.549 239.524 290.717 240.556 291.053 241.492C291.389 242.428 291.845 243.232 292.421 243.904C293.021 244.576 293.729 245.104 294.545 245.488C295.361 245.848 296.261 246.028 297.245 246.028ZM320.523 247.432C319.179 247.432 317.931 247.228 316.779 246.82C315.651 246.412 314.667 245.824 313.827 245.056C312.987 244.288 312.327 243.352 311.847 242.248C311.391 241.12 311.163 239.836 311.163 238.396C311.163 236.956 311.403 235.672 311.883 234.544C312.387 233.392 313.071 232.432 313.935 231.664C314.799 230.896 315.795 230.308 316.923 229.9C318.075 229.492 319.299 229.288 320.595 229.288C322.035 229.288 323.247 229.552 324.231 230.08C325.239 230.608 326.103 231.22 326.823 231.916L325.887 232.996C325.143 232.3 324.351 231.748 323.511 231.34C322.671 230.908 321.711 230.692 320.631 230.692C319.479 230.692 318.423 230.884 317.463 231.268C316.503 231.628 315.675 232.156 314.979 232.852C314.307 233.524 313.779 234.328 313.395 235.264C313.035 236.2 312.855 237.244 312.855 238.396C312.855 239.524 313.035 240.556 313.395 241.492C313.779 242.428 314.307 243.232 314.979 243.904C315.651 244.576 316.467 245.104 317.427 245.488C318.387 245.848 319.443 246.028 320.595 246.028C321.771 246.028 322.839 245.8 323.799 245.344C324.783 244.864 325.659 244.264 326.427 243.544L327.255 244.66C326.343 245.5 325.335 246.172 324.231 246.676C323.127 247.18 321.891 247.432 320.523 247.432ZM334.045 247V221.116H335.665V240.124H335.809L346.897 229.72H348.877L341.785 236.38L350.029 247H348.193L340.705 237.388L335.665 242.104V247H334.045ZM354.983 247V221.116H356.603V228.604L356.495 233.14H356.567C357.599 232.012 358.667 231.088 359.771 230.368C360.875 229.648 362.111 229.288 363.479 229.288C367.631 229.288 369.707 231.604 369.707 236.236V247H368.087V236.452C368.087 234.508 367.703 233.068 366.935 232.132C366.191 231.196 364.955 230.728 363.227 230.728C362.603 230.728 362.027 230.812 361.499 230.98C360.971 231.124 360.443 231.364 359.915 231.7C359.411 232.012 358.883 232.42 358.331 232.924C357.803 233.404 357.227 233.968 356.603 234.616V247H354.983ZM383.589 247.432C382.461 247.432 381.381 247.228 380.349 246.82C379.341 246.412 378.453 245.824 377.685 245.056C376.917 244.288 376.305 243.352 375.849 242.248C375.417 241.12 375.201 239.836 375.201 238.396C375.201 236.956 375.417 235.672 375.849 234.544C376.305 233.392 376.917 232.432 377.685 231.664C378.453 230.896 379.341 230.308 380.349 229.9C381.381 229.492 382.461 229.288 383.589 229.288C384.717 229.288 385.785 229.492 386.793 229.9C387.825 230.308 388.725 230.896 389.493 231.664C390.261 232.432 390.861 233.392 391.293 234.544C391.749 235.672 391.977 236.956 391.977 238.396C391.977 239.836 391.749 241.12 391.293 242.248C390.861 243.352 390.261 244.288 389.493 245.056C388.725 245.824 387.825 246.412 386.793 246.82C385.785 247.228 384.717 247.432 383.589 247.432ZM383.589 246.028C384.549 246.028 385.437 245.848 386.253 245.488C387.093 245.104 387.801 244.576 388.377 243.904C388.977 243.232 389.445 242.428 389.781 241.492C390.117 240.556 390.285 239.524 390.285 238.396C390.285 237.244 390.117 236.2 389.781 235.264C389.445 234.328 388.977 233.524 388.377 232.852C387.801 232.156 387.093 231.628 386.253 231.268C385.437 230.884 384.549 230.692 383.589 230.692C382.605 230.692 381.705 230.884 380.889 231.268C380.073 231.628 379.365 232.156 378.765 232.852C378.189 233.524 377.733 234.328 377.397 235.264C377.061 236.2 376.893 237.244 376.893 238.396C376.893 239.524 377.061 240.556 377.397 241.492C377.733 242.428 378.189 243.232 378.765 243.904C379.365 244.576 380.073 245.104 380.889 245.488C381.705 245.848 382.605 246.028 383.589 246.028ZM409.279 247.432C407.623 247.432 406.351 246.988 405.463 246.1C404.575 245.188 404.131 243.748 404.131 241.78V222.484H397.579V221.116H405.715V241.996C405.715 243.364 406.039 244.384 406.687 245.056C407.335 245.704 408.271 246.028 409.495 246.028C410.647 246.028 411.835 245.728 413.059 245.128L413.563 246.352C412.819 246.712 412.123 246.976 411.475 247.144C410.851 247.336 410.119 247.432 409.279 247.432ZM418.625 247V229.72H419.957L420.137 232.06H420.209C420.713 231.22 421.253 230.548 421.829 230.044C422.429 229.54 423.221 229.288 424.205 229.288C426.029 229.288 427.169 230.308 427.625 232.348C428.249 231.364 428.861 230.608 429.461 230.08C430.085 229.552 430.889 229.288 431.873 229.288C433.097 229.288 434.021 229.72 434.645 230.584C435.293 231.448 435.617 232.744 435.617 234.472V247H434.033V234.652C434.033 232.036 433.205 230.728 431.549 230.728C430.781 230.728 430.121 231.004 429.569 231.556C429.017 232.084 428.453 232.888 427.877 233.968V247H426.365V234.652C426.365 232.036 425.549 230.728 423.917 230.728C423.125 230.728 422.441 231.004 421.865 231.556C421.313 232.084 420.761 232.888 420.209 233.968V247H418.625ZM445.503 254.596L444.927 253.444C446.367 252.724 447.459 251.848 448.203 250.816C448.947 249.784 449.343 248.476 449.391 246.892C449.103 246.964 448.827 247 448.563 247C447.939 247 447.423 246.832 447.015 246.496C446.607 246.136 446.403 245.596 446.403 244.876C446.403 244.132 446.619 243.592 447.051 243.256C447.507 242.896 448.011 242.716 448.563 242.716C449.403 242.716 450.027 243.052 450.435 243.724C450.867 244.372 451.083 245.26 451.083 246.388C451.083 248.428 450.567 250.12 449.535 251.464C448.527 252.832 447.183 253.876 445.503 254.596ZM491.843 247.432C490.019 247.432 488.411 247.108 487.019 246.46C485.651 245.788 484.463 244.924 483.455 243.868L484.535 242.716C485.447 243.7 486.527 244.48 487.775 245.056C489.023 245.632 490.391 245.92 491.879 245.92C493.799 245.92 495.311 245.488 496.415 244.624C497.543 243.736 498.107 242.596 498.107 241.204C498.107 240.46 497.975 239.836 497.711 239.332C497.471 238.804 497.135 238.36 496.703 238C496.295 237.616 495.803 237.292 495.227 237.028C494.675 236.74 494.087 236.464 493.463 236.2L489.899 234.58C489.347 234.364 488.759 234.1 488.135 233.788C487.535 233.476 486.983 233.092 486.479 232.636C485.975 232.156 485.555 231.604 485.219 230.98C484.883 230.332 484.715 229.564 484.715 228.676C484.715 227.812 484.895 227.032 485.255 226.336C485.615 225.616 486.119 225.004 486.767 224.5C487.415 223.972 488.183 223.564 489.071 223.276C489.959 222.988 490.919 222.844 491.951 222.844C493.463 222.844 494.807 223.132 495.983 223.708C497.183 224.26 498.167 224.92 498.935 225.688L497.963 226.768C497.219 226.048 496.343 225.472 495.335 225.04C494.351 224.584 493.211 224.356 491.915 224.356C490.259 224.356 488.915 224.74 487.883 225.508C486.875 226.276 486.371 227.308 486.371 228.604C486.371 229.3 486.515 229.888 486.803 230.368C487.091 230.848 487.451 231.268 487.883 231.628C488.339 231.964 488.819 232.264 489.323 232.528C489.851 232.768 490.355 232.984 490.835 233.176L494.399 234.76C495.119 235.048 495.803 235.372 496.451 235.732C497.099 236.092 497.663 236.512 498.143 236.992C498.647 237.472 499.043 238.048 499.331 238.72C499.619 239.368 499.763 240.148 499.763 241.06C499.763 241.972 499.571 242.824 499.187 243.616C498.827 244.384 498.299 245.056 497.603 245.632C496.907 246.184 496.067 246.628 495.083 246.964C494.123 247.276 493.043 247.432 491.843 247.432ZM507.129 247L502.701 229.72H504.393L507.129 240.916C507.321 241.708 507.501 242.488 507.669 243.256C507.861 244 508.029 244.756 508.173 245.524H508.317C508.485 244.756 508.665 244 508.857 243.256C509.049 242.488 509.241 241.708 509.433 240.916L512.205 230.008H514.113L516.849 240.916C517.041 241.708 517.233 242.488 517.425 243.256C517.641 244 517.833 244.756 518.001 245.524H518.145C518.337 244.756 518.517 244 518.685 243.256C518.853 242.488 519.033 241.708 519.225 240.916L521.925 229.72H523.509L519.153 247H516.993L514.293 236.56C514.101 235.792 513.921 235 513.753 234.184C513.585 233.368 513.393 232.504 513.177 231.592H513.033C512.841 232.504 512.661 233.38 512.493 234.22C512.325 235.036 512.133 235.828 511.917 236.596L509.289 247H507.129ZM535.771 247.432C534.523 247.432 533.347 247.228 532.243 246.82C531.139 246.412 530.167 245.824 529.327 245.056C528.511 244.264 527.863 243.304 527.383 242.176C526.903 241.048 526.663 239.776 526.663 238.36C526.663 236.968 526.903 235.708 527.383 234.58C527.863 233.452 528.499 232.504 529.291 231.736C530.083 230.944 530.995 230.344 532.027 229.936C533.083 229.504 534.175 229.288 535.303 229.288C536.479 229.288 537.547 229.48 538.507 229.864C539.467 230.224 540.283 230.752 540.955 231.448C541.627 232.12 542.143 232.948 542.503 233.932C542.863 234.916 543.043 236.032 543.043 237.28C543.043 237.496 543.043 237.724 543.043 237.964C543.043 238.18 543.019 238.396 542.971 238.612H528.283C528.307 239.812 528.523 240.88 528.931 241.816C529.363 242.752 529.927 243.532 530.623 244.156C531.319 244.78 532.111 245.26 532.999 245.596C533.911 245.908 534.871 246.064 535.879 246.064C537.055 246.064 538.111 245.896 539.047 245.56C539.983 245.2 540.859 244.744 541.675 244.192L542.323 245.38C541.555 245.908 540.655 246.388 539.623 246.82C538.591 247.228 537.307 247.432 535.771 247.432ZM535.339 230.656C534.499 230.656 533.683 230.8 532.891 231.088C532.123 231.376 531.415 231.808 530.767 232.384C530.143 232.936 529.615 233.62 529.183 234.436C528.751 235.252 528.475 236.188 528.355 237.244H541.603C541.483 235.012 540.847 233.356 539.695 232.276C538.543 231.196 537.091 230.656 535.339 230.656ZM555.521 247.432C554.393 247.432 553.361 247.24 552.425 246.856C551.489 246.448 550.685 245.86 550.013 245.092C549.341 244.324 548.813 243.388 548.429 242.284C548.069 241.156 547.889 239.86 547.889 238.396C547.889 237.004 548.105 235.744 548.537 234.616C548.993 233.488 549.593 232.528 550.337 231.736C551.105 230.944 551.969 230.344 552.929 229.936C553.913 229.504 554.945 229.288 556.025 229.288C557.129 229.288 558.137 229.504 559.049 229.936C559.961 230.368 560.849 230.968 561.713 231.736H561.785L561.677 228.244V221.116H563.297V247H561.929L561.749 244.444H561.677C560.909 245.236 559.997 245.932 558.941 246.532C557.885 247.132 556.745 247.432 555.521 247.432ZM555.737 246.028C556.745 246.028 557.741 245.752 558.725 245.2C559.733 244.648 560.717 243.868 561.677 242.86V233.248C560.693 232.312 559.745 231.652 558.833 231.268C557.945 230.884 557.045 230.692 556.133 230.692C555.221 230.692 554.369 230.896 553.577 231.304C552.785 231.688 552.089 232.228 551.489 232.924C550.889 233.596 550.421 234.412 550.085 235.372C549.749 236.308 549.581 237.316 549.581 238.396C549.581 239.548 549.713 240.592 549.977 241.528C550.265 242.464 550.673 243.268 551.201 243.94C551.729 244.588 552.377 245.104 553.145 245.488C553.913 245.848 554.777 246.028 555.737 246.028ZM578.943 247.432C577.695 247.432 576.519 247.228 575.415 246.82C574.311 246.412 573.339 245.824 572.499 245.056C571.683 244.264 571.035 243.304 570.555 242.176C570.075 241.048 569.835 239.776 569.835 238.36C569.835 236.968 570.075 235.708 570.555 234.58C571.035 233.452 571.671 232.504 572.463 231.736C573.255 230.944 574.167 230.344 575.199 229.936C576.255 229.504 577.347 229.288 578.475 229.288C579.651 229.288 580.719 229.48 581.679 229.864C582.639 230.224 583.455 230.752 584.127 231.448C584.799 232.12 585.315 232.948 585.675 233.932C586.035 234.916 586.215 236.032 586.215 237.28C586.215 237.496 586.215 237.724 586.215 237.964C586.215 238.18 586.191 238.396 586.143 238.612H571.455C571.479 239.812 571.695 240.88 572.103 241.816C572.535 242.752 573.099 243.532 573.795 244.156C574.491 244.78 575.283 245.26 576.171 245.596C577.083 245.908 578.043 246.064 579.051 246.064C580.227 246.064 581.283 245.896 582.219 245.56C583.155 245.2 584.031 244.744 584.847 244.192L585.495 245.38C584.727 245.908 583.827 246.388 582.795 246.82C581.763 247.228 580.479 247.432 578.943 247.432ZM578.511 230.656C577.671 230.656 576.855 230.8 576.062 231.088C575.295 231.376 574.587 231.808 573.939 232.384C573.315 232.936 572.787 233.62 572.354 234.436C571.923 235.252 571.647 236.188 571.527 237.244H584.775C584.655 235.012 584.019 233.356 582.867 232.276C581.715 231.196 580.263 230.656 578.511 230.656ZM592.428 247V229.72H593.796L593.976 233.032H594.12C595.128 231.952 596.16 231.064 597.216 230.368C598.296 229.648 599.532 229.288 600.924 229.288C605.076 229.288 607.152 231.604 607.152 236.236V247H605.532V236.452C605.532 234.508 605.148 233.068 604.38 232.132C603.636 231.196 602.4 230.728 600.672 230.728C600.048 230.728 599.472 230.812 598.944 230.98C598.416 231.124 597.888 231.364 597.36 231.7C596.856 232.012 596.328 232.42 595.776 232.924C595.248 233.404 594.672 233.968 594.048 234.616V247H592.428Z" fill="#E8F1F2"/>
<path d="M528.175 197V173.456H543.223V176.984H532.351V183.644H541.603V187.172H532.351V197H528.175ZM550.157 197V179.324H553.577L553.937 183.32H554.045C554.957 181.88 556.049 180.788 557.321 180.044C558.617 179.276 560.033 178.892 561.569 178.892C562.289 178.892 562.901 178.952 563.405 179.072C563.933 179.168 564.461 179.348 564.989 179.612L564.125 183.104C563.549 182.912 563.033 182.78 562.577 182.708C562.145 182.612 561.593 182.564 560.921 182.564C559.697 182.564 558.521 182.912 557.393 183.608C556.265 184.304 555.245 185.516 554.333 187.244V197H550.157ZM577.863 197.432C576.711 197.432 575.595 197.228 574.515 196.82C573.435 196.412 572.487 195.812 571.671 195.02C570.855 194.228 570.195 193.256 569.691 192.104C569.211 190.952 568.971 189.644 568.971 188.18C568.971 186.716 569.211 185.408 569.691 184.256C570.195 183.104 570.855 182.132 571.671 181.34C572.487 180.548 573.435 179.948 574.515 179.54C575.595 179.108 576.711 178.892 577.863 178.892C579.015 178.892 580.131 179.108 581.211 179.54C582.291 179.948 583.239 180.548 584.055 181.34C584.871 182.132 585.519 183.104 585.999 184.256C586.503 185.408 586.755 186.716 586.755 188.18C586.755 189.644 586.503 190.952 585.999 192.104C585.519 193.256 584.871 194.228 584.055 195.02C583.239 195.812 582.291 196.412 581.211 196.82C580.131 197.228 579.015 197.432 577.863 197.432ZM577.863 194.048C579.303 194.048 580.431 193.52 581.247 192.464C582.063 191.384 582.471 189.956 582.471 188.18C582.471 186.38 582.063 184.952 581.247 183.896C580.431 182.816 579.303 182.276 577.863 182.276C576.423 182.276 575.295 182.816 574.479 183.896C573.663 184.952 573.255 186.38 573.255 188.18C573.255 189.956 573.663 191.384 574.479 192.464C575.295 193.52 576.423 194.048 577.863 194.048ZM591.6 197V179.324H595.02L595.344 181.988H595.488C596.328 181.148 597.252 180.428 598.26 179.828C599.292 179.204 600.492 178.892 601.86 178.892C603.9 178.892 605.4 179.516 606.36 180.764C607.32 181.988 607.8 183.752 607.8 186.056V197H603.624V186.596C603.624 185.156 603.372 184.112 602.868 183.464C602.388 182.792 601.536 182.456 600.312 182.456C599.448 182.456 598.68 182.66 598.008 183.068C597.336 183.476 596.592 184.1 595.776 184.94V197H591.6ZM624.31 197.432C622.966 197.432 621.826 197.252 620.89 196.892C619.978 196.532 619.234 196.028 618.658 195.38C618.106 194.708 617.698 193.904 617.434 192.968C617.194 192.032 617.074 191 617.074 189.872V182.6H612.358V179.504L617.254 179.324L617.794 173.78H621.214V179.324H629.278V182.6H621.214V189.872C621.214 191.336 621.514 192.416 622.114 193.112C622.738 193.784 623.806 194.12 625.318 194.12C626.062 194.12 626.746 194.06 627.37 193.94C627.994 193.796 628.594 193.616 629.17 193.4L629.962 196.424C629.17 196.688 628.318 196.916 627.406 197.108C626.494 197.324 625.462 197.432 624.31 197.432ZM657.114 197V173.456H672.198V176.984H661.29V182.996H670.542V186.524H661.29V193.472H672.558V197H657.114ZM677.944 197V179.324H681.364L681.688 181.988H681.832C682.672 181.148 683.596 180.428 684.604 179.828C685.636 179.204 686.836 178.892 688.204 178.892C690.244 178.892 691.744 179.516 692.704 180.764C693.664 181.988 694.144 183.752 694.144 186.056V197H689.968V186.596C689.968 185.156 689.716 184.112 689.212 183.464C688.732 182.792 687.88 182.456 686.656 182.456C685.792 182.456 685.024 182.66 684.352 183.068C683.68 183.476 682.936 184.1 682.12 184.94V197H677.944ZM706.046 197.432C704.918 197.432 703.886 197.228 702.95 196.82C702.014 196.388 701.21 195.776 700.538 194.984C699.89 194.192 699.386 193.232 699.026 192.104C698.666 190.952 698.486 189.644 698.486 188.18C698.486 186.74 698.702 185.444 699.134 184.292C699.566 183.14 700.142 182.168 700.862 181.376C701.606 180.584 702.446 179.972 703.382 179.54C704.318 179.108 705.29 178.892 706.298 178.892C707.306 178.892 708.194 179.072 708.962 179.432C709.73 179.792 710.462 180.308 711.158 180.98H711.266L711.05 177.992V171.584H715.226V197H711.806L711.482 194.948H711.374C710.678 195.644 709.862 196.232 708.926 196.712C708.014 197.192 707.054 197.432 706.046 197.432ZM707.054 194.012C708.518 194.012 709.85 193.304 711.05 191.888V183.932C710.426 183.332 709.802 182.912 709.178 182.672C708.554 182.432 707.918 182.312 707.27 182.312C706.646 182.312 706.058 182.444 705.506 182.708C704.978 182.972 704.51 183.356 704.102 183.86C703.694 184.34 703.37 184.94 703.13 185.66C702.89 186.38 702.77 187.208 702.77 188.144C702.77 190.064 703.142 191.528 703.886 192.536C704.63 193.52 705.686 194.012 707.054 194.012ZM742.558 197V173.456H748.75C752.23 173.456 754.942 174.428 756.886 176.372C758.854 178.316 759.838 181.232 759.838 185.12C759.838 187.064 759.586 188.78 759.082 190.268C758.578 191.756 757.858 193.004 756.922 194.012C755.986 194.996 754.846 195.74 753.502 196.244C752.158 196.748 750.646 197 748.966 197H742.558ZM746.734 193.616H748.498C750.754 193.616 752.494 192.932 753.718 191.564C754.942 190.172 755.554 188.024 755.554 185.12C755.554 182.24 754.942 180.14 753.718 178.82C752.494 177.5 750.754 176.84 748.498 176.84H746.734V193.616ZM773.216 197.432C771.872 197.432 770.612 197.228 769.436 196.82C768.26 196.388 767.228 195.776 766.34 194.984C765.476 194.192 764.792 193.22 764.288 192.068C763.784 190.916 763.532 189.608 763.532 188.144C763.532 186.704 763.784 185.42 764.288 184.292C764.792 183.14 765.464 182.168 766.304 181.376C767.168 180.56 768.14 179.948 769.22 179.54C770.324 179.108 771.476 178.892 772.676 178.892C773.996 178.892 775.16 179.108 776.168 179.54C777.176 179.948 778.028 180.524 778.724 181.268C779.42 181.988 779.948 182.864 780.308 183.896C780.668 184.928 780.848 186.056 780.848 187.28C780.848 187.688 780.824 188.084 780.776 188.468C780.752 188.828 780.716 189.128 780.668 189.368H767.672C767.912 191.024 768.572 192.248 769.652 193.04C770.732 193.832 772.1 194.228 773.756 194.228C774.692 194.228 775.556 194.096 776.348 193.832C777.14 193.568 777.932 193.208 778.724 192.752L780.128 195.344C779.192 195.968 778.124 196.472 776.924 196.856C775.748 197.24 774.512 197.432 773.216 197.432ZM772.784 182.096C771.56 182.096 770.48 182.456 769.544 183.176C768.632 183.896 768.044 184.976 767.78 186.416H777.176C777.032 184.976 776.576 183.896 775.808 183.176C775.064 182.456 774.056 182.096 772.784 182.096ZM791.454 197L784.398 179.324H788.574L791.994 188.504C792.33 189.392 792.63 190.28 792.894 191.168C793.182 192.032 793.47 192.92 793.758 193.832H793.902C794.19 192.92 794.466 192.032 794.73 191.168C795.018 190.28 795.33 189.392 795.666 188.504L799.086 179.324H803.046L796.17 197H791.454ZM816.388 197.432C815.044 197.432 813.784 197.228 812.608 196.82C811.432 196.388 810.4 195.776 809.512 194.984C808.648 194.192 807.964 193.22 807.46 192.068C806.956 190.916 806.704 189.608 806.704 188.144C806.704 186.704 806.956 185.42 807.46 184.292C807.964 183.14 808.636 182.168 809.476 181.376C810.34 180.56 811.312 179.948 812.392 179.54C813.496 179.108 814.648 178.892 815.848 178.892C817.168 178.892 818.332 179.108 819.34 179.54C820.348 179.948 821.2 180.524 821.896 181.268C822.592 181.988 823.12 182.864 823.48 183.896C823.84 184.928 824.02 186.056 824.02 187.28C824.02 187.688 823.996 188.084 823.948 188.468C823.924 188.828 823.888 189.128 823.84 189.368H810.844C811.084 191.024 811.744 192.248 812.824 193.04C813.904 193.832 815.272 194.228 816.928 194.228C817.864 194.228 818.728 194.096 819.52 193.832C820.312 193.568 821.104 193.208 821.896 192.752L823.3 195.344C822.364 195.968 821.296 196.472 820.096 196.856C818.92 197.24 817.684 197.432 816.388 197.432ZM815.956 182.096C814.732 182.096 813.652 182.456 812.716 183.176C811.804 183.896 811.216 184.976 810.952 186.416H820.348C820.204 184.976 819.748 183.896 818.98 183.176C818.236 182.456 817.228 182.096 815.956 182.096ZM840.53 197.432C838.466 197.432 836.894 196.832 835.814 195.632C834.758 194.432 834.23 192.74 834.23 190.556V174.86H828.326V171.584H838.37V190.772C838.37 191.972 838.67 192.824 839.27 193.328C839.894 193.808 840.65 194.048 841.538 194.048C842.474 194.048 843.482 193.82 844.562 193.364L845.534 196.424C844.67 196.76 843.878 197.012 843.158 197.18C842.438 197.348 841.562 197.432 840.53 197.432ZM858.48 197.432C857.328 197.432 856.212 197.228 855.132 196.82C854.052 196.412 853.104 195.812 852.288 195.02C851.472 194.228 850.812 193.256 850.308 192.104C849.828 190.952 849.588 189.644 849.588 188.18C849.588 186.716 849.828 185.408 850.308 184.256C850.812 183.104 851.472 182.132 852.288 181.34C853.104 180.548 854.052 179.948 855.132 179.54C856.212 179.108 857.328 178.892 858.48 178.892C859.632 178.892 860.748 179.108 861.828 179.54C862.908 179.948 863.856 180.548 864.672 181.34C865.488 182.132 866.136 183.104 866.616 184.256C867.12 185.408 867.372 186.716 867.372 188.18C867.372 189.644 867.12 190.952 866.616 192.104C866.136 193.256 865.488 194.228 864.672 195.02C863.856 195.812 862.908 196.412 861.828 196.82C860.748 197.228 859.632 197.432 858.48 197.432ZM858.48 194.048C859.92 194.048 861.048 193.52 861.864 192.464C862.68 191.384 863.088 189.956 863.088 188.18C863.088 186.38 862.68 184.952 861.864 183.896C861.048 182.816 859.92 182.276 858.48 182.276C857.04 182.276 855.912 182.816 855.096 183.896C854.28 184.952 853.872 186.38 853.872 188.18C853.872 189.956 854.28 191.384 855.096 192.464C855.912 193.52 857.04 194.048 858.48 194.048ZM872.218 203.984V179.324H875.638L875.962 181.34H876.07C876.838 180.644 877.714 180.068 878.698 179.612C879.706 179.132 880.714 178.892 881.722 178.892C882.874 178.892 883.894 179.108 884.782 179.54C885.694 179.948 886.45 180.548 887.05 181.34C887.674 182.132 888.142 183.08 888.454 184.184C888.79 185.288 888.958 186.524 888.958 187.892C888.958 189.404 888.742 190.76 888.31 191.96C887.878 193.136 887.29 194.132 886.546 194.948C885.826 195.74 884.986 196.352 884.026 196.784C883.09 197.216 882.118 197.432 881.11 197.432C880.294 197.432 879.454 197.252 878.59 196.892C877.75 196.532 876.982 196.016 876.286 195.344H876.178L876.394 198.44V203.984H872.218ZM880.246 194.012C881.518 194.012 882.574 193.508 883.414 192.5C884.254 191.468 884.674 189.944 884.674 187.928C884.674 186.152 884.35 184.772 883.702 183.788C883.054 182.804 882.01 182.312 880.57 182.312C879.898 182.312 879.214 182.48 878.518 182.816C877.822 183.152 877.114 183.692 876.394 184.436V192.392C877.042 192.992 877.702 193.412 878.374 193.652C879.07 193.892 879.694 194.012 880.246 194.012ZM902.732 197.432C901.388 197.432 900.128 197.228 898.952 196.82C897.776 196.388 896.744 195.776 895.856 194.984C894.992 194.192 894.308 193.22 893.804 192.068C893.3 190.916 893.048 189.608 893.048 188.144C893.048 186.704 893.3 185.42 893.804 184.292C894.308 183.14 894.98 182.168 895.82 181.376C896.684 180.56 897.656 179.948 898.736 179.54C899.84 179.108 900.992 178.892 902.192 178.892C903.512 178.892 904.676 179.108 905.684 179.54C906.692 179.948 907.544 180.524 908.24 181.268C908.936 181.988 909.464 182.864 909.824 183.896C910.184 184.928 910.364 186.056 910.364 187.28C910.364 187.688 910.34 188.084 910.292 188.468C910.268 188.828 910.232 189.128 910.184 189.368H897.188C897.428 191.024 898.088 192.248 899.168 193.04C900.248 193.832 901.616 194.228 903.272 194.228C904.208 194.228 905.072 194.096 905.864 193.832C906.656 193.568 907.448 193.208 908.24 192.752L909.644 195.344C908.708 195.968 907.64 196.472 906.44 196.856C905.264 197.24 904.028 197.432 902.732 197.432ZM902.3 182.096C901.076 182.096 899.996 182.456 899.06 183.176C898.148 183.896 897.56 184.976 897.296 186.416H906.692C906.548 184.976 906.092 183.896 905.324 183.176C904.58 182.456 903.572 182.096 902.3 182.096ZM917.118 197V179.324H920.538L920.898 183.32H921.006C921.918 181.88 923.01 180.788 924.282 180.044C925.578 179.276 926.994 178.892 928.53 178.892C929.25 178.892 929.862 178.952 930.366 179.072C930.894 179.168 931.422 179.348 931.95 179.612L931.086 183.104C930.51 182.912 929.994 182.78 929.538 182.708C929.106 182.612 928.554 182.564 927.882 182.564C926.658 182.564 925.482 182.912 924.354 183.608C923.226 184.304 922.206 185.516 921.294 187.244V197H917.118Z" fill="#1B98E0"/>
</g>
<defs>
<clipPath id="clip0_1_11">
<rect width="1200" height="480" fill="white"/>
</clipPath>
</defs>
</svg>
